<svg width="25" height="25" viewBox="0 0 25 25" fill="none" xmlns="http://www.w3.org/2000/svg"><g clip-path="url(#a)"><path d="M21.343 18.074a11.961 11.961 0 0 1-1.183 2.127c-.622.887-1.131 1.5-1.524 1.841-.608.56-1.26.846-1.958.863-.5 0-1.105-.143-1.809-.432-.705-.288-1.354-.43-1.947-.43-.622 0-1.289.142-2.003.43-.714.29-1.29.44-1.73.455-.67.028-1.336-.266-2.002-.886-.425-.37-.957-1.006-1.594-1.906-.683-.962-1.245-2.077-1.685-3.348-.472-1.373-.708-2.702-.708-3.99 0-1.473.319-2.745.957-3.81A5.612 5.612 0 0 1 6.16 6.96a5.39 5.39 0 0 1 2.708-.764c.532 0 1.23.165 2.096.488.864.324 1.418.488 1.662.488.181 0 .798-.192 1.842-.575.988-.356 1.822-.503 2.505-.445 1.851.15 3.242.88 4.166 2.194-1.655 1.003-2.474 2.408-2.457 4.21.015 1.403.524 2.572 1.525 3.499.453.43.96.763 1.523 1a16.41 16.41 0 0 1-.388 1.02ZM17.098 1.37c0 1.1-.402 2.127-1.203 3.078-.967 1.13-2.137 1.784-3.405 1.68a3.417 3.417 0 0 1-.026-.416c0-1.056.46-2.187 1.277-3.111a4.908 4.908 0 0 1 1.555-1.167c.627-.306 1.22-.475 1.779-.504.016.147.023.294.023.44Z" fill="#667085"/></g><defs><clipPath id="a"><path fill="#fff" d="M.5.93h24v24H.5z"/></clipPath></defs></svg>
