<svg width="180" height="53" viewBox="0 0 180 53" fill="none" xmlns="http://www.w3.org/2000/svg">
<path d="M179 46.4965C179 49.2677 176.709 51.5123 173.874 51.5123H6.13243C3.2995 51.5123 1 49.2677 1 46.4965V6.49698C1 3.72715 3.2995 1.47461 6.13243 1.47461H173.873C176.709 1.47461 178.999 3.72715 178.999 6.49698L179 46.4965Z" fill="black"/>
<path d="M173.333 1.53479C176.42 1.53479 178.932 3.98367 178.932 6.99317V45.9932C178.932 49.0027 176.42 51.4515 173.333 51.4515H6.66667C3.58 51.4515 1.06833 49.0027 1.06833 45.9932V6.99317C1.06833 3.98367 3.58 1.53479 6.66667 1.53479H173.333ZM173.333 0.493167H6.66667C3.00167 0.493167 0 3.41979 0 6.99317V45.9932C0 49.5665 3.00167 52.4932 6.66667 52.4932H173.333C176.998 52.4932 180 49.5665 180 45.9932V6.99317C180 3.41979 176.998 0.493167 173.333 0.493167Z" fill="#A6A6A6"/>
<path d="M40.1705 26.2123C40.1318 22.0224 43.6891 19.984 43.8518 19.8891C41.8371 17.0252 38.7145 16.6339 37.6171 16.6027C34.9945 16.3336 32.4505 18.1328 31.1145 18.1328C29.7518 18.1328 27.6945 16.6287 25.4771 16.6729C22.6238 16.7158 19.9545 18.3265 18.4905 20.8277C15.4691 25.9276 17.7225 33.4221 20.6171 37.5444C22.0651 39.5633 23.7571 41.8175 25.9718 41.7382C28.1385 41.6511 28.9478 40.3914 31.5625 40.3914C34.1531 40.3914 34.9131 41.7382 37.1718 41.6875C39.4971 41.6511 40.9611 39.6595 42.3585 37.6224C44.0318 35.3084 44.7038 33.0295 44.7305 32.9125C44.6758 32.8943 40.2145 31.2342 40.1705 26.2123Z" fill="white"/>
<path d="M35.9038 13.8909C37.0691 12.47 37.8665 10.5369 37.6451 8.5752C35.9585 8.648 33.8491 9.7127 32.6345 11.1024C31.5598 12.327 30.5998 14.3342 30.8478 16.2218C32.7425 16.3596 34.6878 15.2897 35.9038 13.8909Z" fill="white"/>
<path d="M71.5269 41.4488H68.4989L66.8402 36.3671H61.0749L59.4949 41.4488H56.5469L62.2589 24.1484H65.7869L71.5269 41.4488ZM66.3402 34.2351L64.8402 29.7176C64.6815 29.2561 64.3842 28.1693 63.9455 26.4585H63.8922C63.7175 27.1943 63.4362 28.2811 63.0495 29.7176L61.5762 34.2351H66.3402Z" fill="white"/>
<path d="M86.2164 35.0579C86.2164 37.1795 85.6284 38.8565 84.4524 40.0876C83.399 41.1835 82.091 41.7308 80.5297 41.7308C78.8444 41.7308 77.6337 41.1406 76.8964 39.9602H76.843V46.5317H74.0004V33.0806C74.0004 31.7468 73.9644 30.3779 73.895 28.9739H76.395L76.5537 30.9512H76.607C77.555 29.4614 78.9937 28.7178 80.9244 28.7178C82.4337 28.7178 83.6937 29.2989 84.7017 30.4624C85.7124 31.6272 86.2164 33.1586 86.2164 35.0579ZM83.3204 35.1593C83.3204 33.9451 83.0404 32.9441 82.4777 32.1563C81.863 31.3347 81.0377 30.9239 80.003 30.9239C79.3017 30.9239 78.6644 31.1527 78.095 31.6038C77.5243 32.0588 77.151 32.6529 76.9763 33.3887C76.8883 33.7319 76.8444 34.0127 76.8444 34.2337V36.3137C76.8444 37.2211 77.1297 37.9868 77.7004 38.6121C78.271 39.2374 79.0124 39.5494 79.9244 39.5494C80.995 39.5494 81.8284 39.1464 82.4244 38.343C83.0217 37.5383 83.3204 36.4775 83.3204 35.1593Z" fill="white"/>
<path d="M100.932 35.0579C100.932 37.1795 100.344 38.8565 99.167 40.0876C98.115 41.1835 96.807 41.7308 95.2456 41.7308C93.5603 41.7308 92.3496 41.1406 91.6136 39.9602H91.5603V46.5317H88.7176V33.0806C88.7176 31.7468 88.6816 30.3779 88.6123 28.9739H91.1123L91.271 30.9512H91.3243C92.271 29.4614 93.7096 28.7178 95.6416 28.7178C97.1496 28.7178 98.4096 29.2989 99.4203 30.4624C100.427 31.6272 100.932 33.1586 100.932 35.0579ZM98.0363 35.1593C98.0363 33.9451 97.755 32.9441 97.1923 32.1563C96.5776 31.3347 95.755 30.9239 94.719 30.9239C94.0163 30.9239 93.3803 31.1527 92.8096 31.6038C92.239 32.0588 91.867 32.6529 91.6923 33.3887C91.6056 33.7319 91.5603 34.0127 91.5603 34.2337V36.3137C91.5603 37.2211 91.8456 37.9868 92.4136 38.6121C92.9843 39.2361 93.7256 39.5494 94.6403 39.5494C95.711 39.5494 96.5443 39.1464 97.1403 38.343C97.7376 37.5383 98.0363 36.4775 98.0363 35.1593Z" fill="white"/>
<path d="M117.385 36.5968C117.385 38.0684 116.861 39.2657 115.809 40.19C114.653 41.2001 113.044 41.7045 110.976 41.7045C109.067 41.7045 107.536 41.3457 106.377 40.6268L107.036 38.3167C108.284 39.0525 109.653 39.4217 111.145 39.4217C112.216 39.4217 113.049 39.1851 113.648 38.7145C114.244 38.2439 114.541 37.6121 114.541 36.8243C114.541 36.1223 114.296 35.5308 113.804 35.0511C113.315 34.5714 112.497 34.1255 111.356 33.7134C108.249 32.5837 106.697 30.9288 106.697 28.7526C106.697 27.3304 107.241 26.1643 108.331 25.2569C109.416 24.3482 110.864 23.8945 112.675 23.8945C114.289 23.8945 115.631 24.1688 116.701 24.7161L115.991 26.9755C114.991 26.4451 113.86 26.1799 112.595 26.1799C111.595 26.1799 110.813 26.4204 110.253 26.8988C109.78 27.3265 109.543 27.8478 109.543 28.4653C109.543 29.1491 109.813 29.7146 110.357 30.1592C110.831 30.57 111.691 31.0146 112.939 31.4943C114.465 32.0936 115.587 32.7943 116.308 33.5977C117.027 34.3985 117.385 35.4008 117.385 36.5968Z" fill="white"/>
<path d="M126.784 31.0535H123.651V37.1102C123.651 38.6507 124.203 39.4203 125.31 39.4203C125.818 39.4203 126.239 39.3774 126.572 39.2916L126.651 41.3963C126.091 41.6004 125.354 41.7031 124.44 41.7031C123.318 41.7031 122.44 41.369 121.807 40.7021C121.176 40.0339 120.859 38.9133 120.859 37.339V31.0509H118.992V28.9709H120.859V26.6868L123.651 25.8652V28.9709H126.784V31.0535Z" fill="white"/>
<path d="M140.922 35.1083C140.922 37.0258 140.359 38.6 139.236 39.8311C138.059 41.0986 136.496 41.7304 134.548 41.7304C132.671 41.7304 131.176 41.1233 130.062 39.9091C128.947 38.6949 128.39 37.1622 128.39 35.3149C128.39 33.3818 128.963 31.7985 130.114 30.5674C131.262 29.335 132.811 28.7188 134.759 28.7188C136.636 28.7188 138.147 29.3259 139.287 30.5414C140.378 31.7205 140.922 33.2428 140.922 35.1083ZM137.972 35.1979C137.972 34.0474 137.72 33.0608 137.21 32.2379C136.614 31.2421 135.762 30.7454 134.658 30.7454C133.515 30.7454 132.647 31.2434 132.051 32.2379C131.54 33.0621 131.288 34.0643 131.288 35.2499C131.288 36.4004 131.54 37.3871 132.051 38.2087C132.666 39.2045 133.524 39.7011 134.632 39.7011C135.718 39.7011 136.57 39.1941 137.184 38.1827C137.708 37.3442 137.972 36.3471 137.972 35.1979Z" fill="white"/>
<path d="M150.162 31.4114C149.88 31.3607 149.58 31.3347 149.266 31.3347C148.266 31.3347 147.492 31.7026 146.948 32.4397C146.475 33.0897 146.238 33.9113 146.238 34.9032V41.4487H143.396L143.423 32.9025C143.423 31.4647 143.387 30.1556 143.316 28.9752H145.792L145.896 31.362H145.975C146.275 30.5417 146.748 29.8813 147.396 29.386C148.03 28.9401 148.714 28.7178 149.451 28.7178C149.714 28.7178 149.951 28.736 150.162 28.7685V31.4114Z" fill="white"/>
<path d="M162.875 34.621C162.875 35.1176 162.842 35.5362 162.771 35.8781H154.243C154.276 37.1105 154.688 38.053 155.48 38.703C156.199 39.2841 157.128 39.5753 158.27 39.5753C159.532 39.5753 160.684 39.379 161.72 38.9851L162.166 40.9091C160.955 41.4239 159.526 41.68 157.876 41.68C155.892 41.68 154.335 41.1106 153.202 39.9731C152.071 38.8356 151.504 37.3081 151.504 35.3919C151.504 33.5108 152.031 31.9443 153.086 30.695C154.19 29.3612 155.682 28.6943 157.559 28.6943C159.403 28.6943 160.799 29.3612 161.747 30.695C162.498 31.7545 162.875 33.0649 162.875 34.621ZM160.164 33.9021C160.183 33.0805 159.998 32.3707 159.612 31.7714C159.12 31.0005 158.364 30.6157 157.347 30.6157C156.418 30.6157 155.662 30.9914 155.084 31.7454C154.611 32.3447 154.33 33.0636 154.243 33.9008H160.164V33.9021Z" fill="white"/>
<path d="M65.4002 13.5045C65.4002 15.0346 64.9295 16.1864 63.9895 16.9599C63.1189 17.6736 61.8815 18.0311 60.2789 18.0311C59.4842 18.0311 58.8042 17.9973 58.2349 17.9297V9.56938C58.9775 9.45238 59.7775 9.39258 60.6415 9.39258C62.1682 9.39258 63.3189 9.71628 64.0949 10.3637C64.9642 11.0956 65.4002 12.1421 65.4002 13.5045ZM63.9269 13.5422C63.9269 12.5503 63.6575 11.7898 63.1189 11.2594C62.5802 10.7303 61.7935 10.4651 60.7575 10.4651C60.3175 10.4651 59.9429 10.4937 59.6322 10.5535V16.9092C59.8042 16.9352 60.1189 16.9469 60.5762 16.9469C61.6455 16.9469 62.4709 16.657 63.0522 16.0772C63.6335 15.4974 63.9269 14.6524 63.9269 13.5422Z" fill="white"/>
<path d="M73.2122 14.8413C73.2122 15.7838 72.9362 16.556 72.3842 17.1618C71.8055 17.7845 71.0388 18.0952 70.0815 18.0952C69.1588 18.0952 68.4242 17.7975 67.8762 17.1995C67.3295 16.6028 67.0562 15.8501 67.0562 14.9427C67.0562 13.9937 67.3375 13.215 67.9028 12.6105C68.4682 12.006 69.2282 11.7031 70.1855 11.7031C71.1082 11.7031 71.8495 12.0008 72.4108 12.5975C72.9442 13.1773 73.2122 13.9261 73.2122 14.8413ZM71.7628 14.8855C71.7628 14.32 71.6375 13.8351 71.3882 13.4308C71.0948 12.942 70.6775 12.6976 70.1348 12.6976C69.5735 12.6976 69.1468 12.942 68.8535 13.4308C68.6028 13.8351 68.4788 14.3278 68.4788 14.9102C68.4788 15.4757 68.6042 15.9606 68.8535 16.3649C69.1562 16.8537 69.5775 17.0981 70.1215 17.0981C70.6548 17.0981 71.0735 16.8498 71.3748 16.3519C71.6335 15.9398 71.7628 15.451 71.7628 14.8855Z" fill="white"/>
<path d="M83.6867 11.8271L81.7201 17.9553H80.4401L79.6254 15.2942C79.4187 14.6299 79.2507 13.9695 79.1201 13.3143H79.0947C78.9734 13.9877 78.8054 14.6468 78.5894 15.2942L77.7241 17.9553H76.4294L74.5801 11.8271H76.0161L76.7267 14.7404C76.8987 15.4294 77.0401 16.0859 77.1534 16.7073H77.1787C77.2827 16.1951 77.4547 15.5425 77.6974 14.7534L78.5894 11.8284H79.7281L80.5827 14.691C80.7894 15.3891 80.9574 16.0612 81.0867 16.7086H81.1254C81.2201 16.0781 81.3627 15.406 81.5521 14.691L82.3147 11.8284H83.6867V11.8271Z" fill="white"/>
<path d="M90.9307 17.9561H89.5334V14.4461C89.5334 13.3645 89.112 12.8237 88.2667 12.8237C87.852 12.8237 87.5174 12.9719 87.2574 13.2696C87 13.5673 86.8694 13.9183 86.8694 14.32V17.9548H85.472V13.579C85.472 13.0408 85.4547 12.4571 85.4214 11.8253H86.6494L86.7147 12.7834H86.7534C86.9161 12.4857 87.1587 12.24 87.4774 12.0437C87.856 11.8149 88.28 11.6992 88.744 11.6992C89.3307 11.6992 89.8187 11.8838 90.2067 12.2543C90.6894 12.708 90.9307 13.3853 90.9307 14.2849V17.9561Z" fill="white"/>
<path d="M94.7842 17.9557H93.3882V9.01562H94.7842V17.9557Z" fill="white"/>
<path d="M103.011 14.8413C103.011 15.7838 102.735 16.556 102.183 17.1618C101.604 17.7845 100.836 18.0952 99.8803 18.0952C98.9563 18.0952 98.2216 17.7975 97.675 17.1995C97.1283 16.6028 96.855 15.8501 96.855 14.9427C96.855 13.9937 97.1363 13.215 97.7017 12.6105C98.267 12.006 99.027 11.7031 99.983 11.7031C100.907 11.7031 101.647 12.0008 102.21 12.5975C102.743 13.1773 103.011 13.9261 103.011 14.8413ZM101.56 14.8855C101.56 14.32 101.435 13.8351 101.186 13.4308C100.894 12.942 100.475 12.6976 99.9336 12.6976C99.371 12.6976 98.9443 12.942 98.6523 13.4308C98.4016 13.8351 98.2776 14.3278 98.2776 14.9102C98.2776 15.4757 98.403 15.9606 98.6523 16.3649C98.955 16.8537 99.3763 17.0981 99.9203 17.0981C100.454 17.0981 100.871 16.8498 101.172 16.3519C101.432 15.9398 101.56 15.451 101.56 14.8855Z" fill="white"/>
<path d="M109.774 17.9561H108.519L108.415 17.2502H108.376C107.947 17.8131 107.335 18.0952 106.54 18.0952C105.947 18.0952 105.467 17.9093 105.106 17.5401C104.778 17.2047 104.614 16.7874 104.614 16.2921C104.614 15.5433 104.934 14.9726 105.578 14.5774C106.22 14.1822 107.124 13.9885 108.288 13.9976V13.8832C108.288 13.0759 107.854 12.6729 106.983 12.6729C106.363 12.6729 105.816 12.825 105.344 13.1266L105.06 12.2322C105.644 11.8799 106.366 11.7031 107.216 11.7031C108.859 11.7031 109.683 12.5481 109.683 14.2381V16.4949C109.683 17.1072 109.714 17.5947 109.774 17.9561ZM108.323 15.8501V14.905C106.782 14.879 106.011 15.2911 106.011 16.14C106.011 16.4598 106.099 16.699 106.279 16.8589C106.459 17.0188 106.688 17.0981 106.962 17.0981C107.268 17.0981 107.555 17.0032 107.816 16.8147C108.079 16.6249 108.24 16.3844 108.3 16.0893C108.315 16.023 108.323 15.9424 108.323 15.8501Z" fill="white"/>
<path d="M117.713 17.9557H116.473L116.408 16.9716H116.369C115.973 17.7204 115.299 18.0948 114.351 18.0948C113.593 18.0948 112.963 17.8049 112.463 17.2251C111.963 16.6453 111.713 15.8926 111.713 14.9683C111.713 13.9764 111.984 13.173 112.528 12.5594C113.055 11.9874 113.7 11.7014 114.468 11.7014C115.312 11.7014 115.903 11.9783 116.239 12.5334H116.265V9.01562H117.664V16.3047C117.664 16.9014 117.68 17.4513 117.713 17.9557ZM116.265 15.3713V14.3495C116.265 14.1727 116.252 14.0297 116.227 13.9205C116.148 13.5929 115.979 13.3173 115.721 13.095C115.461 12.8727 115.148 12.7609 114.787 12.7609C114.265 12.7609 113.857 12.9624 113.557 13.3667C113.26 13.771 113.109 14.2871 113.109 14.9176C113.109 15.5234 113.252 16.0148 113.539 16.3931C113.841 16.7961 114.249 16.9976 114.76 16.9976C115.219 16.9976 115.585 16.8299 115.864 16.4932C116.133 16.1825 116.265 15.8081 116.265 15.3713Z" fill="white"/>
<path d="M129.664 14.8413C129.664 15.7838 129.388 16.556 128.836 17.1618C128.258 17.7845 127.492 18.0952 126.534 18.0952C125.612 18.0952 124.878 17.7975 124.328 17.1995C123.782 16.6028 123.508 15.8501 123.508 14.9427C123.508 13.9937 123.79 13.215 124.355 12.6105C124.92 12.006 125.68 11.7031 126.639 11.7031C127.56 11.7031 128.303 12.0008 128.863 12.5975C129.396 13.1773 129.664 13.9261 129.664 14.8413ZM128.216 14.8855C128.216 14.32 128.091 13.8351 127.842 13.4308C127.547 12.942 127.131 12.6976 126.587 12.6976C126.027 12.6976 125.6 12.942 125.306 13.4308C125.055 13.8351 124.931 14.3278 124.931 14.9102C124.931 15.4757 125.056 15.9606 125.306 16.3649C125.608 16.8537 126.03 17.0981 126.574 17.0981C127.107 17.0981 127.527 16.8498 127.828 16.3519C128.086 15.9398 128.216 15.451 128.216 14.8855Z" fill="white"/>
<path d="M137.177 17.9561H135.781V14.4461C135.781 13.3645 135.36 12.8237 134.513 12.8237C134.099 12.8237 133.764 12.9719 133.505 13.2696C133.247 13.5673 133.117 13.9183 133.117 14.32V17.9548H131.719V13.579C131.719 13.0408 131.703 12.4571 131.669 11.8253H132.896L132.961 12.7834H133C133.164 12.4857 133.407 12.24 133.724 12.0437C134.104 11.8149 134.527 11.6992 134.992 11.6992C135.577 11.6992 136.065 11.8838 136.453 12.2543C136.937 12.708 137.177 13.3853 137.177 14.2849V17.9561Z" fill="white"/>
<path d="M146.581 12.8485H145.043V15.8255C145.043 16.5821 145.316 16.9604 145.857 16.9604C146.108 16.9604 146.316 16.9396 146.48 16.8967L146.516 17.9302C146.24 18.0316 145.877 18.0823 145.431 18.0823C144.879 18.0823 144.449 17.9185 144.139 17.5909C143.827 17.2633 143.672 16.7121 143.672 15.9386V12.8485H142.753V11.828H143.672V10.7048L145.041 10.3018V11.8267H146.58V12.8485H146.581Z" fill="white"/>
<path d="M153.979 17.9557H152.58V14.4717C152.58 13.3732 152.159 12.8233 151.315 12.8233C150.667 12.8233 150.224 13.1418 149.981 13.7788C149.94 13.9127 149.916 14.0765 149.916 14.2689V17.9544H148.52V9.01562H149.916V12.7089H149.943C150.383 12.0368 151.013 11.7014 151.831 11.7014C152.409 11.7014 152.888 11.886 153.268 12.2565C153.741 12.718 153.979 13.4044 153.979 14.3118V17.9557Z" fill="white"/>
<path d="M161.609 14.6021C161.609 14.8465 161.591 15.0519 161.557 15.2196H157.367C157.385 15.8254 157.585 16.2869 157.973 16.6067C158.328 16.8927 158.785 17.0357 159.345 17.0357C159.965 17.0357 160.531 16.9395 161.04 16.7458L161.259 17.6922C160.663 17.9444 159.961 18.0705 159.149 18.0705C158.176 18.0705 157.409 17.791 156.855 17.232C156.297 16.673 156.021 15.9229 156.021 14.9817C156.021 14.0574 156.279 13.2878 156.797 12.6742C157.339 12.019 158.071 11.6914 158.995 11.6914C159.899 11.6914 160.585 12.019 161.049 12.6742C161.424 13.1942 161.609 13.8377 161.609 14.6021ZM160.276 14.2498C160.287 13.8455 160.195 13.4971 160.005 13.2033C159.763 12.825 159.393 12.6352 158.893 12.6352C158.437 12.6352 158.065 12.8198 157.781 13.1903C157.549 13.4854 157.412 13.8377 157.367 14.2498H160.276Z" fill="white"/>
</svg>
