<svg width="25" height="25" viewBox="0 0 25 25" fill="none" xmlns="http://www.w3.org/2000/svg"><g clip-path="url(#a)"><path d="M24.266 13.206c0-.816-.066-1.636-.207-2.438H12.74v4.62h6.482a5.555 5.555 0 0 1-2.399 3.647v2.998h3.867c2.271-2.09 3.576-5.176 3.576-8.827Z" fill="#4285F4"/><path d="M12.74 24.931c3.237 0 5.966-1.063 7.955-2.897l-3.867-2.998c-1.076.732-2.465 1.146-4.083 1.146-3.131 0-5.786-2.112-6.738-4.951h-3.99v3.09a12.002 12.002 0 0 0 10.723 6.61Z" fill="#34A853"/><path d="M6.003 15.23a7.188 7.188 0 0 1 0-4.594V7.545H2.017a12.01 12.01 0 0 0 0 10.776l3.986-3.09Z" fill="#FBBC04"/><path d="M12.74 5.68a6.52 6.52 0 0 1 4.603 1.798l3.427-3.426A11.533 11.533 0 0 0 12.74.93 11.998 11.998 0 0 0 2.017 7.545l3.986 3.09C6.95 7.791 9.609 5.68 12.74 5.68Z" fill="#EA4335"/></g><defs><clipPath id="a"><path fill="#fff" d="M.5.93h24v24H.5z"/></clipPath></defs></svg>
