<svg width="180" height="53" viewBox="0 0 180 53" fill="none" xmlns="http://www.w3.org/2000/svg">
<path d="M173.095 52.4932H6.6575C2.99754 52.4932 0 49.5665 0 45.9932V6.99317C0 3.41979 2.99754 0.493167 6.6575 0.493167H173.095C176.755 0.493167 179.753 3.41979 179.753 6.99317V45.9932C179.753 49.5665 176.755 52.4932 173.095 52.4932Z" fill="black"/>
<path d="M173.095 1.53479C176.177 1.53479 178.686 3.98367 178.686 6.99317V45.9932C178.686 49.0027 176.177 51.4515 173.095 51.4515H6.6575C3.57508 51.4515 1.06686 49.0027 1.06686 45.9932V6.99317C1.06686 3.98367 3.57508 1.53479 6.6575 1.53479H173.095ZM173.095 0.493167H6.6575C2.99754 0.493167 0 3.41979 0 6.99317V45.9932C0 49.5665 2.99754 52.4932 6.6575 52.4932H173.095C176.755 52.4932 179.753 49.5665 179.753 45.9932V6.99317C179.753 3.41979 176.755 0.493167 173.095 0.493167Z" fill="#A6A6A6"/>
<path d="M63.1366 13.8103C63.1366 14.8958 62.8037 15.7652 62.1479 16.4136C61.394 17.1822 60.412 17.569 59.2087 17.569C58.0586 17.569 57.0766 17.1757 56.271 16.4006C55.4638 15.6141 55.061 14.6488 55.061 13.4935C55.061 12.3381 55.4638 11.3728 56.271 10.5928C57.0766 9.81122 58.0586 9.41797 59.2087 9.41797C59.7812 9.41797 60.3271 9.53334 60.8481 9.74784C61.3674 9.96397 61.7901 10.2565 62.0963 10.6172L61.4006 11.303C60.8664 10.6871 60.139 10.3832 59.2087 10.3832C58.3698 10.3832 57.6425 10.6692 57.025 11.2461C56.4142 11.8246 56.1079 12.5737 56.1079 13.4935C56.1079 14.4132 56.4142 15.1688 57.025 15.7473C57.6425 16.3177 58.3698 16.6102 59.2087 16.6102C60.0991 16.6102 60.8481 16.3177 61.4389 15.7408C61.8284 15.359 62.0498 14.8325 62.108 14.1597H59.2087V13.2205H63.0767C63.1233 13.4236 63.1366 13.6202 63.1366 13.8103Z" fill="white" stroke="white" stroke-width="0.16" stroke-miterlimit="10"/>
<path d="M69.2728 10.5538H65.6394V13.0238H68.9149V13.9631H65.6394V16.4331H69.2728V17.3902H64.6108V9.59668H69.2728V10.5538Z" fill="white" stroke="white" stroke-width="0.16" stroke-miterlimit="10"/>
<path d="M73.6039 17.3902H72.5753V10.5538H70.3467V9.59668H75.8341V10.5538H73.6039V17.3902Z" fill="white" stroke="white" stroke-width="0.16" stroke-miterlimit="10"/>
<path d="M79.8052 17.3902V9.59668H80.8321V17.3902H79.8052Z" fill="white" stroke="white" stroke-width="0.16" stroke-miterlimit="10"/>
<path d="M85.3841 17.3902H84.3639V10.5538H82.127V9.59668H87.621V10.5538H85.3841V17.3902Z" fill="white" stroke="white" stroke-width="0.16" stroke-miterlimit="10"/>
<path d="M98.0099 16.3876C97.2227 17.1757 96.2474 17.569 95.084 17.569C93.9139 17.569 92.9386 17.1757 92.1513 16.3876C91.3657 15.6011 90.9746 14.6358 90.9746 13.4935C90.9746 12.3511 91.3657 11.3858 92.1513 10.5993C92.9386 9.81122 93.9139 9.41797 95.084 9.41797C96.2407 9.41797 97.216 9.81122 98.0033 10.6058C98.7955 11.3988 99.1866 12.3576 99.1866 13.4935C99.1866 14.6358 98.7955 15.6011 98.0099 16.3876ZM92.9119 15.7343C93.5045 16.3177 94.2251 16.6102 95.084 16.6102C95.9361 16.6102 96.6634 16.3177 97.2493 15.7343C97.8402 15.151 98.1397 14.4018 98.1397 13.4935C98.1397 12.5851 97.8402 11.836 97.2493 11.2526C96.6634 10.6692 95.9361 10.3767 95.084 10.3767C94.2251 10.3767 93.5045 10.6692 92.9119 11.2526C92.3211 11.836 92.0215 12.5851 92.0215 13.4935C92.0215 14.4018 92.3211 15.151 92.9119 15.7343Z" fill="white" stroke="white" stroke-width="0.16" stroke-miterlimit="10"/>
<path d="M100.63 17.3902V9.59668H101.878L105.759 15.6579H105.804L105.759 14.1597V9.59668H106.786V17.3902H105.715L101.65 11.0299H101.605L101.65 12.5347V17.3902H100.63Z" fill="white" stroke="white" stroke-width="0.16" stroke-miterlimit="10"/>
<path d="M90.7215 28.7714C87.5942 28.7714 85.0394 31.0952 85.0394 34.3013C85.0394 37.4814 87.5942 39.8296 90.7215 39.8296C93.8555 39.8296 96.4104 37.4814 96.4104 34.3013C96.4104 31.0952 93.8555 28.7714 90.7215 28.7714ZM90.7215 37.6521C89.0056 37.6521 87.5293 36.2692 87.5293 34.3013C87.5293 32.3074 89.0056 30.9489 90.7215 30.9489C92.4375 30.9489 93.9205 32.3074 93.9205 34.3013C93.9205 36.2692 92.4375 37.6521 90.7215 37.6521ZM78.3236 28.7714C75.1896 28.7714 72.6414 31.0952 72.6414 34.3013C72.6414 37.4814 75.1896 39.8296 78.3236 39.8296C81.4559 39.8296 84.0058 37.4814 84.0058 34.3013C84.0058 31.0952 81.4559 28.7714 78.3236 28.7714ZM78.3236 37.6521C76.606 37.6521 75.1247 36.2692 75.1247 34.3013C75.1247 32.3074 76.606 30.9489 78.3236 30.9489C80.0396 30.9489 81.5159 32.3074 81.5159 34.3013C81.5159 36.2692 80.0396 37.6521 78.3236 37.6521ZM63.5706 30.4663V32.8161H69.3177C69.1496 34.1291 68.7002 35.0943 68.0111 35.7671C67.1723 36.5796 65.8657 37.4814 63.5706 37.4814C60.0338 37.4814 57.2643 34.6946 57.2643 31.2414C57.2643 27.7883 60.0338 25.0015 63.5706 25.0015C65.4829 25.0015 66.8744 25.7311 67.9013 26.6768L69.5973 25.0209C68.1609 23.682 66.2502 22.6533 63.5706 22.6533C58.7206 22.6533 54.6445 26.5062 54.6445 31.2414C54.6445 35.9767 58.7206 39.8296 63.5706 39.8296C66.192 39.8296 68.1609 38.9911 69.7088 37.4181C71.2949 35.8694 71.7893 33.6919 71.7893 31.9337C71.7893 31.3877 71.7427 30.8856 71.6594 30.4663H63.5706ZM123.898 32.2879C123.43 31.0513 121.987 28.7714 119.048 28.7714C116.135 28.7714 113.71 31.0123 113.71 34.3013C113.71 37.3986 116.11 39.8296 119.327 39.8296C121.929 39.8296 123.43 38.2809 124.047 37.3791L122.117 36.1229C121.473 37.0427 120.595 37.6521 119.327 37.6521C118.067 37.6521 117.163 37.0882 116.584 35.9767L124.159 32.9168L123.898 32.2879ZM116.175 34.1291C116.11 31.9971 117.871 30.9051 119.132 30.9051C120.121 30.9051 120.96 31.3877 121.24 32.0783L116.175 34.1291ZM110.018 39.4932H112.508V23.2432H110.018V39.4932ZM105.941 30.0032H105.857C105.298 29.3564 104.231 28.7714 102.88 28.7714C100.044 28.7714 97.4506 31.2024 97.4506 34.3192C97.4506 37.4181 100.044 39.8296 102.88 39.8296C104.231 39.8296 105.298 39.2397 105.857 38.5734H105.941V39.3664C105.941 41.4806 104.784 42.6164 102.918 42.6164C101.397 42.6164 100.453 41.5439 100.064 40.6421L97.8983 41.5244C98.5225 42.9902 100.175 44.7939 102.918 44.7939C105.837 44.7939 108.301 43.1169 108.301 39.0366V29.1078H105.941V30.0032ZM103.093 37.6521C101.377 37.6521 99.9405 36.2497 99.9405 34.3192C99.9405 32.3708 101.377 30.9489 103.093 30.9489C104.784 30.9489 106.117 32.3708 106.117 34.3192C106.117 36.2497 104.784 37.6521 103.093 37.6521ZM135.555 23.2432H129.6V39.4932H132.083V33.3361H135.555C138.313 33.3361 141.017 31.3877 141.017 28.2888C141.017 25.1916 138.306 23.2432 135.555 23.2432ZM135.62 31.0757H132.083V25.5036H135.62C137.474 25.5036 138.532 27.0067 138.532 28.2888C138.532 29.5466 137.474 31.0757 135.62 31.0757ZM150.97 28.7406C149.176 28.7406 147.31 29.5141 146.543 31.2284L148.747 32.1303C149.221 31.2284 150.093 30.9359 151.015 30.9359C152.303 30.9359 153.61 31.6916 153.63 33.0257V33.1963C153.181 32.9428 152.219 32.5674 151.035 32.5674C148.662 32.5674 146.243 33.8431 146.243 36.2237C146.243 38.4012 148.187 39.8036 150.373 39.8036C152.044 39.8036 152.966 39.0674 153.545 38.2111H153.63V39.4672H156.028V33.2337C156.028 30.3526 153.825 28.7406 150.97 28.7406ZM150.671 37.6456C149.858 37.6456 148.727 37.2523 148.727 36.2692C148.727 35.0114 150.138 34.5288 151.36 34.5288C152.453 34.5288 152.966 34.7644 153.63 35.0748C153.435 36.5796 152.109 37.6456 150.671 37.6456ZM164.766 29.0964L161.912 36.1408H161.827L158.876 29.0964H156.198L160.632 38.9407L158.102 44.4186H160.697L167.529 29.0964H164.766ZM142.382 39.4932H144.872V23.2432H142.382V39.4932Z" fill="white"/>
<path d="M13.8943 10.2936C13.5032 10.6934 13.2769 11.3157 13.2769 12.1217V40.8712C13.2769 41.6772 13.5032 42.2996 13.8943 42.6994L13.9909 42.7871L30.4915 26.6834V26.3031L13.9909 10.1994L13.8943 10.2936Z" fill="url(#paint0_linear_971_43925)"/>
<path d="M35.9853 32.0537L30.4912 26.6831V26.3028L35.992 20.9322L36.1151 21.0021L42.6295 24.621C44.4886 25.648 44.4886 27.338 42.6295 28.3715L36.1151 31.9838L35.9853 32.0537Z" fill="url(#paint1_linear_971_43925)"/>
<path d="M36.1151 31.9844L30.4912 26.4935L13.894 42.6996C14.5115 43.3334 15.5185 43.4097 16.6636 42.776L36.1151 31.9844Z" fill="url(#paint2_linear_971_43925)"/>
<path d="M36.1151 21.0023L16.6636 10.2107C15.5185 9.58342 14.5115 9.65979 13.894 10.2935L30.4912 26.4932L36.1151 21.0023Z" fill="url(#paint3_linear_971_43925)"/>
<defs>
<linearGradient id="paint0_linear_971_43925" x1="29.0264" y1="41.1706" x2="7.21556" y2="18.8313" gradientUnits="userSpaceOnUse">
<stop stop-color="#00A0FF"/>
<stop offset="0.0066" stop-color="#00A1FF"/>
<stop offset="0.2601" stop-color="#00BEFF"/>
<stop offset="0.5122" stop-color="#00D2FF"/>
<stop offset="0.7604" stop-color="#00DFFF"/>
<stop offset="1" stop-color="#00E3FF"/>
</linearGradient>
<linearGradient id="paint1_linear_971_43925" x1="45.0504" y1="26.4911" x2="12.8322" y2="26.4911" gradientUnits="userSpaceOnUse">
<stop stop-color="#FFE000"/>
<stop offset="0.4087" stop-color="#FFBD00"/>
<stop offset="0.7754" stop-color="#FFA500"/>
<stop offset="1" stop-color="#FF9C00"/>
</linearGradient>
<linearGradient id="paint2_linear_971_43925" x1="33.057" y1="23.5086" x2="3.47969" y2="-6.78543" gradientUnits="userSpaceOnUse">
<stop stop-color="#FF3A44"/>
<stop offset="1" stop-color="#C31162"/>
</linearGradient>
<linearGradient id="paint3_linear_971_43925" x1="9.71619" y1="52.2641" x2="22.9238" y2="38.7366" gradientUnits="userSpaceOnUse">
<stop stop-color="#32A071"/>
<stop offset="0.0685" stop-color="#2DA771"/>
<stop offset="0.4762" stop-color="#15CF74"/>
<stop offset="0.8009" stop-color="#06E775"/>
<stop offset="1" stop-color="#00F076"/>
</linearGradient>
</defs>
</svg>
