<svg width="24" height="24" viewBox="0 0 24 24" fill="none" xmlns="http://www.w3.org/2000/svg">
<path d="M13.1375 13.8625H15.1375V10.8625H18.1375V8.86245H15.1375V5.86245H13.1375V8.86245H10.1375V10.8625H13.1375V13.8625ZM8.2092 18.0657C7.57949 18.0657 7.04289 17.844 6.5994 17.4005C6.15594 16.957 5.9342 16.4204 5.9342 15.7907V3.9342C5.9342 3.30449 6.15594 2.76789 6.5994 2.3244C7.04289 1.88092 7.57949 1.65918 8.2092 1.65918H20.0657C20.6954 1.65918 21.232 1.88092 21.6755 2.3244C22.119 2.76789 22.3407 3.30449 22.3407 3.9342V15.7907C22.3407 16.4204 22.119 16.957 21.6755 17.4005C21.232 17.844 20.6954 18.0657 20.0657 18.0657H8.2092ZM8.2092 15.7907H20.0657V3.9342H8.2092V15.7907ZM3.9342 22.3407C3.30449 22.3407 2.76789 22.119 2.3244 21.6755C1.88092 21.232 1.65918 20.6954 1.65918 20.0657V5.9342H3.9342V20.0657H18.0657V22.3407H3.9342Z" fill="#000F25"/>
</svg>
