<svg width="24" height="24" viewBox="0 0 24 24" fill="none" xmlns="http://www.w3.org/2000/svg">
<path d="M0.814453 20.3051V17.2899C0.814453 16.6862 0.970636 16.1312 1.283 15.6252C1.59539 15.1191 2.01039 14.7329 2.52803 14.4665C3.57333 13.9459 4.63719 13.5544 5.71963 13.2921C6.80208 13.0297 7.90144 12.8986 9.0177 12.8986C10.1416 12.8986 11.2449 13.0287 12.3275 13.2891C13.4101 13.5494 14.4701 13.9399 15.5074 14.4605C16.025 14.7263 16.44 15.1117 16.7524 15.6167C17.0648 16.1216 17.221 16.6793 17.221 17.2896V20.3051H0.814453ZM19.3107 20.3051V17.1078C19.3107 16.3585 19.1085 15.6364 18.7041 14.9415C18.2998 14.2466 17.7166 13.6276 16.9547 13.0845C17.7608 13.1924 18.523 13.3643 19.2411 13.5999C19.9592 13.8356 20.6353 14.1225 21.2694 14.4605C21.8853 14.7939 22.3586 15.1872 22.6892 15.6406C23.0198 16.094 23.1851 16.5891 23.1851 17.1258V20.3051H19.3107ZM9.0177 11.8986C7.88582 11.8986 6.91924 11.498 6.11798 10.6967C5.31671 9.8954 4.91608 8.92882 4.91608 7.79694C4.91608 6.66505 5.31671 5.69848 6.11798 4.89721C6.91924 4.09595 7.88582 3.69531 9.0177 3.69531C10.1496 3.69531 11.1162 4.09595 11.9175 4.89721C12.7187 5.69848 13.1194 6.66505 13.1194 7.79694C13.1194 8.92882 12.7187 9.8954 11.9175 10.6967C11.1162 11.498 10.1496 11.8986 9.0177 11.8986ZM19.3107 7.79689C19.3107 8.92482 18.9091 9.89042 18.1061 10.6937C17.303 11.497 16.3377 11.8986 15.21 11.8986C15.022 11.8986 14.7884 11.8768 14.509 11.8331C14.2297 11.7894 13.9904 11.7386 13.7911 11.6806C14.2491 11.1393 14.5999 10.536 14.8435 9.87066C15.0872 9.20531 15.209 8.51437 15.209 7.79784C15.209 7.0813 15.0872 6.39006 14.8435 5.72411C14.5999 5.05818 14.2491 4.45455 13.7911 3.91324C14.0284 3.82592 14.2637 3.76777 14.4971 3.73879C14.7304 3.7098 14.9668 3.69531 15.2062 3.69531C16.3349 3.69531 17.3012 4.09693 18.105 4.90016C18.9088 5.70338 19.3107 6.66895 19.3107 7.79689ZM3.08945 18.0301H14.946V17.3198C14.946 17.1403 14.9001 16.9772 14.8085 16.8303C14.7168 16.6835 14.596 16.5693 14.446 16.4877C13.5699 16.0537 12.6795 15.7261 11.7748 15.5051C10.8701 15.2841 9.95104 15.1736 9.0177 15.1736C8.09235 15.1736 7.17334 15.2841 6.26065 15.5051C5.34797 15.7261 4.45757 16.0537 3.58945 16.4877C3.43945 16.5693 3.31862 16.6835 3.22695 16.8303C3.13529 16.9772 3.08945 17.1403 3.08945 17.3198V18.0301ZM9.01675 9.71324C9.54349 9.71324 9.99471 9.5257 10.3704 9.15061C10.7462 8.77553 10.934 8.32462 10.934 7.79789C10.934 7.27117 10.7465 6.81995 10.3714 6.44424C9.99629 6.0685 9.54539 5.88064 9.01865 5.88064C8.49194 5.88064 8.04072 6.06819 7.665 6.44329C7.28927 6.81837 7.1014 7.26927 7.1014 7.79599C7.1014 8.32272 7.28895 8.77395 7.66405 9.14966C8.03914 9.52538 8.49004 9.71324 9.01675 9.71324Z" fill="#000F25"/>
</svg>
