<svg width="24" height="24" viewBox="0 0 24 24" fill="none" xmlns="http://www.w3.org/2000/svg">
<path d="M8.9118 20.1851C8.33502 20.1851 7.84127 19.9797 7.43055 19.569C7.01982 19.1583 6.81445 18.6645 6.81445 18.0878C6.81445 17.511 7.01982 17.0188 7.43055 16.6112C7.84127 16.2036 8.33502 15.9998 8.9118 15.9998C9.48857 15.9998 9.98075 16.2036 10.3884 16.6112C10.796 17.0188 10.9998 17.511 10.9998 18.0878C10.9998 18.6645 10.796 19.1583 10.3884 19.569C9.98075 19.9797 9.48857 20.1851 8.9118 20.1851ZM15.092 20.1851C14.5164 20.1851 14.0238 19.9797 13.6142 19.569C13.2046 19.1583 12.9998 18.6645 12.9998 18.0878C12.9998 17.511 13.2044 17.0188 13.6136 16.6112C14.0228 16.2036 14.5148 15.9998 15.0895 15.9998C15.6658 15.9998 16.1591 16.2036 16.5695 16.6112C16.9799 17.0188 17.1851 17.511 17.1851 18.0878C17.1851 18.6645 16.9802 19.1583 16.5703 19.569C16.1604 19.9797 15.6676 20.1851 15.092 20.1851ZM8.9118 14.0895C8.33502 14.0895 7.84127 13.8848 7.43055 13.4756C7.01982 13.0664 6.81445 12.5744 6.81445 11.9998C6.81445 11.4219 7.01982 10.9291 7.43055 10.5215C7.84127 10.1139 8.33502 9.9101 8.9118 9.9101C9.48857 9.9101 9.98075 10.1139 10.3884 10.5215C10.796 10.9291 10.9998 11.4209 10.9998 11.9968C10.9998 12.5727 10.796 13.0655 10.3884 13.4751C9.98075 13.8847 9.48857 14.0895 8.9118 14.0895ZM15.092 14.0895C14.5164 14.0895 14.0238 13.8848 13.6142 13.4756C13.2046 13.0664 12.9998 12.5744 12.9998 11.9998C12.9998 11.4219 13.2044 10.9291 13.6136 10.5215C14.0228 10.1139 14.5148 9.9101 15.0895 9.9101C15.6658 9.9101 16.1591 10.1139 16.5695 10.5215C16.9799 10.9291 17.1851 11.4209 17.1851 11.9968C17.1851 12.5727 16.9802 13.0655 16.5703 13.4751C16.1604 13.8847 15.6676 14.0895 15.092 14.0895ZM8.9118 7.99978C8.33502 7.99978 7.84127 7.79516 7.43055 7.38593C7.01982 6.97671 6.81445 6.48477 6.81445 5.9101C6.81445 5.3338 7.01982 4.84045 7.43055 4.43005C7.84127 4.01965 8.33502 3.81445 8.9118 3.81445C9.48857 3.81445 9.98075 4.0194 10.3884 4.4293C10.796 4.8392 10.9998 5.33195 10.9998 5.90755C10.9998 6.48317 10.796 6.97578 10.3884 7.38538C9.98075 7.79498 9.48857 7.99978 8.9118 7.99978ZM15.092 7.99978C14.5164 7.99978 14.0238 7.79516 13.6142 7.38593C13.2046 6.97671 12.9998 6.48477 12.9998 5.9101C12.9998 5.3338 13.2044 4.84045 13.6136 4.43005C14.0228 4.01965 14.5148 3.81445 15.0895 3.81445C15.6658 3.81445 16.1591 4.0194 16.5695 4.4293C16.9799 4.8392 17.1851 5.33195 17.1851 5.90755C17.1851 6.48317 16.9802 6.97578 16.5703 7.38538C16.1604 7.79498 15.6676 7.99978 15.092 7.99978Z" fill="#000F25"/>
</svg>
