<svg width="24" height="24" viewBox="0 0 24 24" fill="none" xmlns="http://www.w3.org/2000/svg">
<path d="M9.83873 21.4395V15.7156L11.2507 11.6797C11.342 11.4645 11.4838 11.2824 11.676 11.1335C11.8682 10.9846 12.1009 10.9101 12.3741 10.9101H19.6741C19.9473 10.9101 20.183 10.9841 20.3812 11.1321C20.5794 11.2801 20.7181 11.4626 20.7974 11.6797L22.2034 15.7156V21.4395C22.2034 21.6706 22.123 21.8677 21.9621 22.0305C21.8012 22.1934 21.6052 22.2748 21.3741 22.2748H20.7638C20.5326 22.2748 20.3356 22.1934 20.1727 22.0305C20.0098 21.8677 19.9284 21.6706 19.9284 21.4395V20.7449H12.1137V21.4395C12.1137 21.6706 12.0323 21.8677 11.8695 22.0305C11.7066 22.1934 11.5096 22.2748 11.2784 22.2748H10.6741C10.4429 22.2748 10.2459 22.1934 10.083 22.0305C9.92016 21.8677 9.83873 21.6706 9.83873 21.4395ZM12.0241 14.5895H20.0241L19.3241 12.5895H12.7241L12.0241 14.5895ZM13.0241 18.5895C13.3074 18.5895 13.5449 18.4936 13.7366 18.302C13.9282 18.1103 14.0241 17.8728 14.0241 17.5895C14.0241 17.3061 13.9282 17.0686 13.7366 16.877C13.5449 16.6853 13.3074 16.5895 13.0241 16.5895C12.7407 16.5895 12.5032 16.6853 12.3116 16.877C12.1199 17.0686 12.0241 17.3061 12.0241 17.5895C12.0241 17.8728 12.1199 18.1103 12.3116 18.302C12.5032 18.4936 12.7407 18.5895 13.0241 18.5895ZM19.0241 18.5895C19.3074 18.5895 19.5449 18.4936 19.7366 18.302C19.9282 18.1103 20.0241 17.8728 20.0241 17.5895C20.0241 17.3061 19.9282 17.0686 19.7366 16.877C19.5449 16.6853 19.3074 16.5895 19.0241 16.5895C18.7407 16.5895 18.5032 16.6853 18.3116 16.877C18.1199 17.0686 18.0241 17.3061 18.0241 17.5895C18.0241 17.8728 18.1199 18.1103 18.3116 18.302C18.5032 18.4936 18.7407 18.5895 19.0241 18.5895ZM5.97622 14.1373V12.0476H8.0719V14.1373H5.97622ZM10.9762 8.1373V6.04763H13.0659V8.1373H10.9762ZM5.97622 18.1373V16.0476H8.0719V18.1373H5.97622ZM5.97622 22.1373V20.0476H8.0719V22.1373H5.97622ZM1.79688 22.1373V7.8623H6.79687V1.8623H17.2513V9.1373H14.9762V4.1373H9.0719V10.1373H4.0719V22.1373H1.79688ZM11.5241 19.0895H20.5241V16.0895H11.5241V19.0895Z" fill="#000F25"/>
</svg>
