<svg width="24" height="24" viewBox="0 0 24 24" fill="none" xmlns="http://www.w3.org/2000/svg">
<path d="M4.07187 22.2034C3.44216 22.2034 2.90556 21.9817 2.46207 21.5382C2.01861 21.0947 1.79688 20.5581 1.79688 19.9284V9.0719C1.79688 8.44218 2.01863 7.90558 2.46213 7.4621C2.90559 7.01862 3.44218 6.79688 4.0719 6.79688H8.79688V3.94037C8.79688 3.33457 9.00268 2.82587 9.41428 2.41427C9.82588 2.00267 10.3346 1.79688 10.9404 1.79688H13.0599C13.6657 1.79688 14.1744 2.00267 14.586 2.41427C14.9976 2.82587 15.2034 3.33457 15.2034 3.94037V6.79688H19.9284C20.5581 6.79688 21.0947 7.01862 21.5382 7.4621C21.9817 7.90558 22.2034 8.44218 22.2034 9.0719V19.9284C22.2034 20.5581 21.9817 21.0947 21.5382 21.5382C21.0947 21.9817 20.5581 22.2034 19.9284 22.2034H4.07187ZM4.07187 19.9284H19.9284V9.0719H15.1914C15.1715 9.62987 14.9508 10.1027 14.5292 10.4904C14.1077 10.8781 13.6179 11.0719 13.0599 11.0719H10.9404C10.3824 11.0719 9.8926 10.8781 9.47105 10.4904C9.04948 10.1027 8.82874 9.62987 8.80883 9.0719H4.07187V19.9284ZM6.00013 18.0719H12.0001V17.6219C12.0001 17.3386 11.921 17.0761 11.7626 16.8344C11.6043 16.5927 11.3835 16.4052 11.1001 16.2719C10.7668 16.1219 10.4293 16.0094 10.0876 15.9344C9.74596 15.8594 9.38346 15.8219 9.00013 15.8219C8.61679 15.8219 8.25429 15.8594 7.91263 15.9344C7.57096 16.0094 7.23346 16.1219 6.90013 16.2719C6.61679 16.4052 6.39596 16.5927 6.23763 16.8344C6.07929 17.0761 6.00013 17.3386 6.00013 17.6219V18.0719ZM14.0001 16.5719H18.0001V15.0719H14.0001V16.5719ZM9.00013 15.0719C9.41679 15.0719 9.77096 14.9261 10.0626 14.6344C10.3543 14.3427 10.5001 13.9886 10.5001 13.5719C10.5001 13.1552 10.3543 12.8011 10.0626 12.5094C9.77096 12.2177 9.41679 12.0719 9.00013 12.0719C8.58346 12.0719 8.22929 12.2177 7.93763 12.5094C7.64596 12.8011 7.50013 13.1552 7.50013 13.5719C7.50013 13.9886 7.64596 14.3427 7.93763 14.6344C8.22929 14.9261 8.58346 15.0719 9.00013 15.0719ZM14.0001 13.5719H18.0001V12.0719H14.0001V13.5719ZM11.0121 8.85667H12.9882V4.0121H11.0121V8.85667Z" fill="#000F25"/>
</svg>
