<svg width="24" height="24" viewBox="0 0 24 24" fill="none" xmlns="http://www.w3.org/2000/svg">
<path d="M10.9105 17.0898H13.0898V11.0001H10.9105V17.0898ZM12.0001 9.11973C12.3174 9.11973 12.5833 9.01243 12.7979 8.79785C13.0124 8.58327 13.1197 8.31737 13.1197 8.00015C13.1197 7.68293 13.0124 7.41703 12.7979 7.20245C12.5833 6.98787 12.3174 6.88057 12.0001 6.88057C11.6829 6.88057 11.417 6.98787 11.2025 7.20245C10.9879 7.41703 10.8806 7.68293 10.8806 8.00015C10.8806 8.31737 10.9879 8.58327 11.2025 8.79785C11.417 9.01243 11.6829 9.11973 12.0001 9.11973ZM12.0001 22.2034C10.5849 22.2034 9.25706 21.9358 8.01652 21.4005C6.77599 20.8652 5.6969 20.1387 4.77925 19.2211C3.8616 18.3034 3.13512 17.2243 2.59982 15.9838C2.06452 14.7432 1.79688 13.4154 1.79688 12.0001C1.79688 10.5849 2.06452 9.25706 2.59982 8.01653C3.13512 6.77599 3.8616 5.6969 4.77925 4.77925C5.6969 3.8616 6.77599 3.13512 8.01652 2.59982C9.25706 2.06452 10.5849 1.79688 12.0001 1.79688C13.4154 1.79688 14.7432 2.06452 15.9838 2.59982C17.2243 3.13512 18.3034 3.8616 19.2211 4.77925C20.1387 5.6969 20.8652 6.77599 21.4005 8.01653C21.9358 9.25706 22.2034 10.5849 22.2034 12.0001C22.2034 13.4154 21.9358 14.7432 21.4005 15.9838C20.8652 17.2243 20.1387 18.3034 19.2211 19.2211C18.3034 20.1387 17.2243 20.8652 15.9838 21.4005C14.7432 21.9358 13.4154 22.2034 12.0001 22.2034ZM12.0001 19.9284C14.2175 19.9284 16.0933 19.1614 17.6273 17.6273C19.1614 16.0933 19.9284 14.2175 19.9284 12.0001C19.9284 9.78277 19.1614 7.90704 17.6273 6.37298C16.0933 4.83893 14.2175 4.0719 12.0001 4.0719C9.78277 4.0719 7.90704 4.83893 6.37297 6.37298C4.83892 7.90704 4.0719 9.78277 4.0719 12.0001C4.0719 14.2175 4.83892 16.0933 6.37297 17.6273C7.90704 19.1614 9.78277 19.9284 12.0001 19.9284Z" fill="black"/>
</svg>
