<svg width="24" height="24" viewBox="0 0 24 24" fill="none" xmlns="http://www.w3.org/2000/svg">
<path d="M12.0001 12.0599C12.5701 12.0599 13.0559 11.8591 13.4575 11.4575C13.8591 11.0559 14.0599 10.5701 14.0599 10.0001C14.0599 9.43022 13.8591 8.94443 13.4575 8.5428C13.0559 8.14118 12.5701 7.94037 12.0001 7.94037C11.4302 7.94037 10.9444 8.14118 10.5428 8.5428C10.1412 8.94443 9.94038 9.43022 9.94038 10.0001C9.94038 10.5701 10.1412 11.0559 10.5428 11.4575C10.9444 11.8591 11.4302 12.0599 12.0001 12.0599ZM12.0001 19.1887C14.0056 17.3539 15.495 15.699 16.4684 14.2238C17.4417 12.7486 17.9284 11.3994 17.9284 10.1762C17.9284 8.38759 17.3561 6.92304 16.2116 5.78257C15.0671 4.64212 13.6632 4.0719 11.9999 4.0719C10.3367 4.0719 8.93286 4.64212 7.78847 5.78257C6.64409 6.92304 6.0719 8.38759 6.0719 10.1762C6.0719 11.3994 6.55858 12.7476 7.53195 14.2208C8.50532 15.694 9.99472 17.35 12.0001 19.1887ZM12.0001 22.2034C9.25305 19.8802 7.19907 17.7345 5.8382 15.7662C4.47732 13.7979 3.79688 11.9345 3.79688 10.1762C3.79688 7.62153 4.62147 5.58631 6.27067 4.07052C7.91988 2.55474 9.8297 1.79686 12.0001 1.79688C14.1706 1.79688 16.0804 2.55477 17.7296 4.07055C19.3788 5.58633 20.2034 7.62156 20.2034 10.1762C20.2034 11.9346 19.523 13.7979 18.1621 15.7662C16.8012 17.7345 14.7472 19.8802 12.0001 22.2034Z" fill="#000F25"/>
</svg>
