<svg width="24" height="24" viewBox="0 0 24 24" fill="none" xmlns="http://www.w3.org/2000/svg">
<path d="M15.0001 21.209L9.00015 19.109L4.4219 20.8911C4.02478 21.0483 3.65467 21.0039 3.31155 20.7577C2.96843 20.5115 2.79688 20.1755 2.79688 19.7498V5.74978C2.79688 5.48928 2.87233 5.25775 3.02325 5.0552C3.17415 4.85267 3.37787 4.70376 3.6344 4.60848L9.00015 2.79053L15.0001 4.89053L19.5784 3.10848C19.9755 2.95123 20.3456 2.9957 20.6887 3.2419C21.0319 3.48809 21.2034 3.82404 21.2034 4.24978V18.2498C21.2034 18.5103 21.128 18.7418 20.977 18.9444C20.8261 19.1469 20.6224 19.2958 20.3659 19.3911L15.0001 21.209ZM14.0001 18.4661V6.93348L10.0001 5.53348V17.0661L14.0001 18.4661ZM16.0001 18.4661L18.9284 17.496V5.80738L16.0001 6.93348V18.4661ZM5.0719 18.1922L8.00015 17.0661V5.53348L5.0719 6.50358V18.1922Z" fill="black"/>
</svg>
