<svg width="24" height="24" viewBox="0 0 24 24" fill="none" xmlns="http://www.w3.org/2000/svg">
<path d="M2.70117 21.299V15.1436H4.97617V19.024H8.85662V21.299H2.70117ZM15.1436 21.299V19.024H19.024V15.1436H21.299V21.299H15.1436ZM7.1452 15.9805L5.56477 14.4251L6.88215 13.1077H1.70117V10.8925H6.88215L5.56477 9.5751L7.1452 8.01965L11.1197 12.0001L7.1452 15.9805ZM16.861 15.9805L12.8865 12.0001L16.861 8.01965L18.4414 9.5751L17.124 10.8925H22.299V13.1077H17.124L18.4414 14.4251L16.861 15.9805ZM2.70117 8.85662V2.70117H8.85662V4.97617H4.97617V8.85662H2.70117ZM19.024 8.85662V4.97617H15.1436V2.70117H21.299V8.85662H19.024Z" fill="#000F25"/>
</svg>
