<svg width="24" height="24" viewBox="0 0 24 24" fill="none" xmlns="http://www.w3.org/2000/svg">
<path d="M3.79688 19.2034V16.9284H5.72515V10.1317C5.72515 8.69652 6.15278 7.41654 7.00802 6.29173C7.86328 5.16691 8.98148 4.43185 10.3626 4.08655V3.4344C10.3626 2.97953 10.5218 2.5929 10.8402 2.2745C11.1586 1.95608 11.5453 1.79688 12.0001 1.79688C12.455 1.79688 12.8417 1.95608 13.16 2.2745C13.4784 2.5929 13.6376 2.97953 13.6376 3.4344V4.08655C15.0228 4.43185 16.142 5.16591 16.9953 6.28873C17.8485 7.41156 18.2751 8.69254 18.2751 10.1317V16.9284H20.2034V19.2034H3.79688ZM12.0061 22.2692C11.4364 22.2692 10.9487 22.0669 10.543 21.6623C10.1373 21.2578 9.9344 20.7715 9.9344 20.2034H14.0719C14.0719 20.7733 13.8696 21.2601 13.4651 21.6637C13.0605 22.0674 12.5742 22.2692 12.0061 22.2692ZM8.00015 16.9284H16.0001V10.1317C16.0001 9.03167 15.6085 8.09001 14.8251 7.30667C14.0418 6.52334 13.1002 6.13167 12.0001 6.13167C10.9001 6.13167 9.95848 6.52334 9.17515 7.30667C8.39182 8.09001 8.00015 9.03167 8.00015 10.1317V16.9284Z" fill="#000F25"/>
</svg>
