<svg width="24" height="24" viewBox="0 0 24 24" fill="none" xmlns="http://www.w3.org/2000/svg">
<path d="M5.0719 21.2034C4.44218 21.2034 3.90558 20.9817 3.4621 20.5382C3.01862 20.0947 2.79688 19.5581 2.79688 18.9284V5.0719C2.79688 4.44218 3.01862 3.90558 3.4621 3.4621C3.90558 3.01862 4.44218 2.79688 5.0719 2.79688H12.0001V5.0719H5.0719V18.9284H18.9284V12.0001H21.2034V18.9284C21.2034 19.5581 20.9817 20.0947 20.5382 20.5382C20.0947 20.9817 19.5581 21.2034 18.9284 21.2034H5.0719ZM9.88548 15.7001L8.30015 14.1148L17.3431 5.0719H14.0001V2.79688H21.2034V10.0001H18.9284V6.65723L9.88548 15.7001Z" fill="#000F25"/>
</svg>
