<svg width="24" height="24" viewBox="0 0 24 24" fill="none" xmlns="http://www.w3.org/2000/svg">
<path d="M10.8926 19.2814V12.6347L5.0719 9.26132V15.908L10.8926 19.2814ZM13.1077 19.2814L18.9284 15.908V9.26132L13.1077 12.6347V19.2814ZM10.8626 21.8803L3.9344 17.8971C3.57787 17.6899 3.29915 17.4144 3.09825 17.0705C2.89733 16.7267 2.79688 16.3475 2.79688 15.933V8.06672C2.79688 7.65222 2.89733 7.27305 3.09825 6.92922C3.29915 6.58537 3.57787 6.30983 3.9344 6.10259L10.8626 2.11944C11.2192 1.91221 11.5983 1.80859 12.0001 1.80859C12.402 1.80859 12.7811 1.91221 13.1376 2.11944L20.0659 6.10262C20.4224 6.30985 20.7011 6.58539 20.9021 6.92924C21.103 7.27308 21.2034 7.65224 21.2034 8.06674V15.933C21.2034 16.3475 21.103 16.7267 20.9021 17.0705C20.7011 17.4144 20.4224 17.6899 20.0659 17.8972L13.1376 21.8803C12.7811 22.0876 12.402 22.1912 12.0001 22.1912C11.5983 22.1912 11.2192 22.0876 10.8626 21.8803V21.8803ZM15.9822 8.41129L17.7458 7.40097L12.0001 4.08359L10.2176 5.11294L15.9822 8.41129ZM12.0001 10.7243L13.7887 9.69499L8.0371 6.37762L6.2545 7.40097L12.0001 10.7243Z" fill="black"/>
</svg>
