<svg width="24" height="24" viewBox="0 0 24 24" fill="none" xmlns="http://www.w3.org/2000/svg">
<path d="M5.88005 17.0105C6.73005 16.3684 7.67606 15.8639 8.71808 15.4969C9.76011 15.1299 10.8546 14.9464 12.0014 14.9464C13.1483 14.9464 14.2453 15.1329 15.2925 15.5059C16.3396 15.8789 17.2822 16.3824 18.1203 17.0164C18.6916 16.3291 19.1358 15.5631 19.4529 14.7184C19.7699 13.8736 19.9284 12.9675 19.9284 12.0001C19.9284 9.8074 19.1552 7.93783 17.6089 6.39145C16.0625 4.84508 14.1929 4.0719 12.0001 4.0719C9.8074 4.0719 7.93783 4.84508 6.39145 6.39145C4.84508 7.93783 4.0719 9.8074 4.0719 12.0001C4.0719 12.9635 4.22942 13.8676 4.54445 14.7124C4.85948 15.5571 5.30468 16.3232 5.88005 17.0105ZM12.0001 13.054C11.0009 13.054 10.1597 12.7135 9.47677 12.0325C8.79381 11.3515 8.45233 10.5114 8.45233 9.5121C8.45233 8.51283 8.79381 7.67171 9.47677 6.98873C10.1597 6.30576 11.0009 5.96427 12.0001 5.96427C12.9994 5.96427 13.8406 6.30576 14.5235 6.98873C15.2065 7.67171 15.548 8.51283 15.548 9.5121C15.548 10.5114 15.2065 11.3515 14.5235 12.0325C13.8406 12.7135 12.9994 13.054 12.0001 13.054ZM11.9997 22.2034C10.5888 22.2034 9.26301 21.9359 8.02242 21.401C6.78184 20.866 5.70159 20.1386 4.78168 19.2186C3.86174 18.2987 3.13429 17.2183 2.59933 15.9774C2.06436 14.7365 1.79688 13.4106 1.79688 11.9997C1.79688 10.5887 2.06436 9.26301 2.59933 8.02242C3.13429 6.78184 3.86174 5.70159 4.78168 4.78167C5.70159 3.86174 6.78201 3.13429 8.02293 2.59932C9.26384 2.06436 10.5898 1.79688 12.0007 1.79688C13.4116 1.79688 14.7373 2.06436 15.9779 2.59932C17.2185 3.13429 18.2987 3.86174 19.2186 4.78167C20.1386 5.70159 20.866 6.78201 21.401 8.02292C21.9359 9.26384 22.2034 10.5897 22.2034 12.0006C22.2034 13.4115 21.9359 14.7373 21.401 15.9779C20.866 17.2185 20.1386 18.2987 19.2186 19.2186C18.2987 20.1386 17.2183 20.866 15.9774 21.401C14.7365 21.9359 13.4106 22.2034 11.9997 22.2034ZM12.0001 19.9284C12.8635 19.9284 13.675 19.8042 14.4344 19.5559C15.1938 19.3075 15.8985 18.9496 16.5485 18.4822C15.8905 18.0108 15.1868 17.652 14.4374 17.4056C13.6879 17.1592 12.8755 17.036 12.0001 17.036C11.1248 17.036 10.3134 17.1592 9.5659 17.4056C8.81845 17.652 8.11573 18.0108 7.45775 18.4822C8.10775 18.9496 8.81147 19.3075 9.5689 19.5559C10.3263 19.8042 11.1367 19.9284 12.0001 19.9284ZM12.0001 10.9643C12.4175 10.9643 12.7639 10.8266 13.0393 10.5512C13.3146 10.2759 13.4523 9.9295 13.4523 9.5121C13.4523 9.09472 13.3146 8.74735 13.0393 8.47C12.7639 8.19263 12.4175 8.05395 12.0001 8.05395C11.5828 8.05395 11.2364 8.19263 10.961 8.47C10.6857 8.74735 10.548 9.09472 10.548 9.5121C10.548 9.9295 10.6857 10.2759 10.961 10.5512C11.2364 10.8266 11.5828 10.9643 12.0001 10.9643Z" fill="black"/>
</svg>
