<svg width="24" height="24" viewBox="0 0 24 24" fill="none" xmlns="http://www.w3.org/2000/svg">
<path d="M6.02893 22.3645C5.1192 22.3645 4.34593 22.0461 3.70913 21.4093C3.07231 20.7725 2.75391 19.9992 2.75391 19.0895V15.8922H5.84358V1.8623L7.39741 3.39818L8.93328 1.8623L10.4691 3.39818L12.011 1.8623L13.5469 3.39818L15.0827 1.8623L16.6186 3.39818L18.1545 1.8623L19.6903 3.39818L21.2442 1.8623V19.0895C21.2442 19.9992 20.9257 20.7725 20.2889 21.4093C19.6521 22.0461 18.8789 22.3645 17.9691 22.3645H6.02893ZM17.9691 20.0895C18.2525 20.0895 18.49 19.9936 18.6816 19.802C18.8733 19.6103 18.9691 19.3728 18.9691 19.0895V5.1672H8.11861V15.8922H16.9691V19.0895C16.9691 19.3728 17.065 19.6103 17.2566 19.802C17.4483 19.9936 17.6858 20.0895 17.9691 20.0895ZM9.11861 9.21503V7.21503H14.9691V9.21503H9.11861ZM9.11861 12.215V10.215H14.9691V12.215H9.11861ZM16.9691 9.21503C16.6858 9.21503 16.4483 9.1192 16.2566 8.92753C16.065 8.73586 15.9691 8.49836 15.9691 8.21503C15.9691 7.9317 16.065 7.6942 16.2566 7.50253C16.4483 7.31086 16.6858 7.21503 16.9691 7.21503C17.2525 7.21503 17.49 7.31086 17.6816 7.50253C17.8733 7.6942 17.9691 7.9317 17.9691 8.21503C17.9691 8.49836 17.8733 8.73586 17.6816 8.92753C17.49 9.1192 17.2525 9.21503 16.9691 9.21503ZM16.9691 12.215C16.6858 12.215 16.4483 12.1192 16.2566 11.9275C16.065 11.7359 15.9691 11.4984 15.9691 11.215C15.9691 10.9317 16.065 10.6942 16.2566 10.5025C16.4483 10.3109 16.6858 10.215 16.9691 10.215C17.2525 10.215 17.49 10.3109 17.6816 10.5025C17.8733 10.6942 17.9691 10.9317 17.9691 11.215C17.9691 11.4984 17.8733 11.7359 17.6816 11.9275C17.49 12.1192 17.2525 12.215 16.9691 12.215ZM6.02893 20.0895H14.6941V18.1672H5.02893V19.0895C5.02893 19.3728 5.12476 19.6103 5.31643 19.802C5.5081 19.9936 5.7456 20.0895 6.02893 20.0895Z" fill="#000F25"/>
</svg>
