<svg width="24" height="24" viewBox="0 0 24 24" fill="none" xmlns="http://www.w3.org/2000/svg">
<path d="M8.00015 9.04798C8.29703 9.04798 8.54589 8.94756 8.74673 8.74672C8.94756 8.54589 9.04798 8.29703 9.04798 8.00015C9.04798 7.70327 8.94756 7.45441 8.74673 7.25358C8.54589 7.05274 8.29703 6.95232 8.00015 6.95232C7.70327 6.95232 7.45441 7.05274 7.25357 7.25358C7.05274 7.45441 6.95233 7.70327 6.95233 8.00015C6.95233 8.29703 7.05274 8.54589 7.25357 8.74672C7.45441 8.94756 7.70327 9.04798 8.00015 9.04798ZM8.00015 13.048C8.29703 13.048 8.54589 12.9476 8.74673 12.7467C8.94756 12.5459 9.04798 12.297 9.04798 12.0001C9.04798 11.7033 8.94756 11.4544 8.74673 11.2536C8.54589 11.0527 8.29703 10.9523 8.00015 10.9523C7.70327 10.9523 7.45441 11.0527 7.25357 11.2536C7.05274 11.4544 6.95233 11.7033 6.95233 12.0001C6.95233 12.297 7.05274 12.5459 7.25357 12.7467C7.45441 12.9476 7.70327 13.048 8.00015 13.048ZM8.00015 17.048C8.29703 17.048 8.54589 16.9476 8.74673 16.7467C8.94756 16.5459 9.04798 16.297 9.04798 16.0001C9.04798 15.7033 8.94756 15.4544 8.74673 15.2536C8.54589 15.0527 8.29703 14.9523 8.00015 14.9523C7.70327 14.9523 7.45441 15.0527 7.25357 15.2536C7.05274 15.4544 6.95233 15.7033 6.95233 16.0001C6.95233 16.297 7.05274 16.5459 7.25357 16.7467C7.45441 16.9476 7.70327 17.048 8.00015 17.048ZM5.0719 21.2034C4.44218 21.2034 3.90558 20.9817 3.4621 20.5382C3.01862 20.0947 2.79688 19.5581 2.79688 18.9284V5.0719C2.79688 4.44218 3.01862 3.90558 3.4621 3.4621C3.90558 3.01862 4.44218 2.79688 5.0719 2.79688H16.0001L21.2034 8.00015V18.9284C21.2034 19.5581 20.9817 20.0947 20.5382 20.5382C20.0947 20.9817 19.5581 21.2034 18.9284 21.2034H5.0719ZM5.0719 18.9284H18.9284V9.16755H14.8328V5.0719H5.0719V18.9284Z" fill="#000F25"/>
</svg>
