<svg width="24" height="24" viewBox="0 0 24 24" fill="none" xmlns="http://www.w3.org/2000/svg">
<path d="M6.0476 20.1851C5.2063 20.1851 4.48601 19.8954 3.88673 19.3161C3.28746 18.7367 2.97985 18.0264 2.9639 17.1851H0.814453V6.08945C0.814453 5.45974 1.03619 4.92315 1.47968 4.47968C1.92314 4.03619 2.45974 3.81445 3.08945 3.81445H17.0895V7.72478H20.0297L23.1851 11.934V17.1851H21.0835C21.0675 18.0264 20.7599 18.7367 20.1607 19.3161C19.5614 19.8954 18.8411 20.1851 17.9998 20.1851C17.1585 20.1851 16.4382 19.8954 15.8389 19.3161C15.2396 18.7367 14.932 18.0264 14.9161 17.1851H9.12533C9.10938 18.0224 8.80276 18.7318 8.20548 19.3131C7.60819 19.8944 6.8889 20.1851 6.0476 20.1851ZM6.0476 18.0895C6.33094 18.0895 6.56844 17.9936 6.7601 17.802C6.95177 17.6103 7.0476 17.3728 7.0476 17.0895C7.0476 16.8061 6.95177 16.5686 6.7601 16.377C6.56844 16.1853 6.33094 16.0895 6.0476 16.0895C5.76427 16.0895 5.52677 16.1853 5.3351 16.377C5.14344 16.5686 5.0476 16.8061 5.0476 17.0895C5.0476 17.3728 5.14344 17.6103 5.3351 17.802C5.52677 17.9936 5.76427 18.0895 6.0476 18.0895ZM3.08945 14.9101H3.91935C4.20269 14.638 4.5217 14.4183 4.8764 14.2509C5.23112 14.0835 5.62152 13.9998 6.0476 13.9998C6.47369 13.9998 6.86504 14.0832 7.22165 14.2501C7.57825 14.417 7.89433 14.637 8.16988 14.9101H14.8145V6.08945H3.08945V14.9101ZM17.9998 18.0895C18.2831 18.0895 18.5206 17.9936 18.7123 17.802C18.9039 17.6103 18.9998 17.3728 18.9998 17.0895C18.9998 16.8061 18.9039 16.5686 18.7123 16.377C18.5206 16.1853 18.2831 16.0895 17.9998 16.0895C17.7164 16.0895 17.4789 16.1853 17.2873 16.377C17.0956 16.5686 16.9998 16.8061 16.9998 17.0895C16.9998 17.3728 17.0956 17.6103 17.2873 17.802C17.4789 17.9936 17.7164 18.0895 17.9998 18.0895ZM17.0895 12.9998H21.1422L18.8922 9.99978H17.0895V12.9998Z" fill="black"/>
</svg>
