<svg width="24" height="24" viewBox="0 0 24 24" fill="none" xmlns="http://www.w3.org/2000/svg">
<path d="M6.99983 22.0895C6.44983 22.0895 5.979 21.8937 5.58733 21.502C5.19566 21.1103 4.99983 20.6395 4.99983 20.0895C4.99983 19.5395 5.19566 19.0687 5.58733 18.677C5.979 18.2853 6.44983 18.0895 6.99983 18.0895C7.54983 18.0895 8.02066 18.2853 8.41233 18.677C8.804 19.0687 8.99983 19.5395 8.99983 20.0895C8.99983 20.6395 8.804 21.1103 8.41233 21.502C8.02066 21.8937 7.54983 22.0895 6.99983 22.0895ZM16.9998 22.0895C16.4498 22.0895 15.979 21.8937 15.5873 21.502C15.1957 21.1103 14.9998 20.6395 14.9998 20.0895C14.9998 19.5395 15.1957 19.0687 15.5873 18.677C15.979 18.2853 16.4498 18.0895 16.9998 18.0895C17.5498 18.0895 18.0207 18.2853 18.4123 18.677C18.804 19.0687 18.9998 19.5395 18.9998 20.0895C18.9998 20.6395 18.804 21.1103 18.4123 21.502C18.0207 21.8937 17.5498 22.0895 16.9998 22.0895ZM6.29928 6.08951L8.56178 10.8145H15.5379L18.1324 6.08951H6.29928ZM5.25363 3.91016H19.7765C20.23 3.91016 20.5751 4.11088 20.8117 4.51233C21.0484 4.91378 21.0571 5.32139 20.8379 5.73516L17.4254 11.902C17.2341 12.2473 16.9774 12.5166 16.6553 12.7099C16.3332 12.9032 15.9807 12.9998 15.5977 12.9998H8.20146L7.15528 14.9102H19.0895V17.0895H6.99983C6.206 17.0895 5.60944 16.7444 5.21016 16.0542C4.81087 15.364 4.7962 14.6799 5.16613 14.002L6.49821 11.5998L2.94603 4.08951H0.910156V1.91016H4.30363L5.25363 3.91016Z" fill="black"/>
</svg>
