<svg width="24" height="24" viewBox="0 0 24 24" fill="none" xmlns="http://www.w3.org/2000/svg">
<path d="M11.5002 22.2273C9.90336 22.2273 8.5497 21.6719 7.43919 20.5612C6.32869 19.4505 5.77344 18.0968 5.77344 16.5001V5.91042C5.77344 4.75946 6.18204 3.77416 6.99924 2.95452C7.81645 2.13491 8.80067 1.7251 9.95189 1.7251C11.1031 1.7251 12.0886 2.13491 12.9084 2.95452C13.7282 3.77416 14.1381 4.75946 14.1381 5.91042V15.4523C14.1381 16.1881 13.8825 16.8117 13.3713 17.3229C12.86 17.8342 12.2365 18.0898 11.5006 18.0898C10.7647 18.0898 10.1412 17.8342 9.62996 17.3229C9.11873 16.8117 8.86311 16.1881 8.86311 15.4523V5.91042H10.5484V15.4523C10.5484 15.7237 10.6397 15.9513 10.8222 16.1349C11.0047 16.3186 11.2308 16.4104 11.5006 16.4104C11.7704 16.4104 11.9965 16.3186 12.179 16.1349C12.3615 15.9513 12.4528 15.7237 12.4528 15.4523V5.91042C12.4528 5.21042 12.2111 4.61876 11.7278 4.13542C11.2445 3.65209 10.6528 3.41042 9.95279 3.41042C9.25279 3.41042 8.66112 3.65209 8.17779 4.13542C7.69445 4.61876 7.45279 5.21042 7.45279 5.91042V16.5001C7.45279 17.616 7.84844 18.5697 8.63974 19.361C9.43104 20.1523 10.3847 20.5479 11.5006 20.5479C12.6166 20.5479 13.5702 20.1523 14.3615 19.361C15.1528 18.5697 15.5484 17.616 15.5484 16.5001V5.91042H17.2278V16.5001C17.2278 18.0968 16.6724 19.4505 15.5616 20.5612C14.4507 21.6719 13.0969 22.2273 11.5002 22.2273Z" fill="black"/>
</svg>
