<svg width="24" height="24" viewBox="0 0 24 24" fill="none" xmlns="http://www.w3.org/2000/svg">
<path d="M10.8623 21.2752V19.0002H19.1074V11.6969C19.1074 10.7202 18.9171 9.80232 18.5365 8.94342C18.1559 8.08452 17.6409 7.33641 16.9917 6.6991C16.3424 6.06178 15.5878 5.55979 14.7278 5.19312C13.8678 4.82645 12.9595 4.64312 12.0028 4.64312C11.0461 4.64312 10.1378 4.82645 9.27781 5.19312C8.41785 5.55979 7.66322 6.06178 7.01394 6.6991C6.36467 7.33641 5.84873 8.08452 5.46611 8.94342C5.08351 9.80232 4.89221 10.7202 4.89221 11.6969V18.1377H3.75469C3.16689 18.1377 2.66369 17.9284 2.24509 17.5098C1.82649 17.0912 1.61719 16.588 1.61719 16.0002V13.8627C1.61719 13.4674 1.70686 13.1179 1.88621 12.8143C2.06556 12.5107 2.30922 12.2612 2.61719 12.0659L2.67426 10.9203C2.79636 9.64783 3.13721 8.49004 3.69681 7.44692C4.25641 6.4038 4.9613 5.51468 5.81149 4.77955C6.66167 4.0444 7.62082 3.47238 8.68894 3.06349C9.75705 2.65463 10.8607 2.4502 11.9998 2.4502C13.1516 2.4502 14.2616 2.65264 15.3297 3.05752C16.3978 3.46242 17.3538 4.03461 18.1976 4.7741C19.0415 5.5136 19.7432 6.40273 20.3028 7.44149C20.8624 8.48026 21.2033 9.63352 21.3254 10.9013L21.3824 12.0219C21.6864 12.1879 21.9291 12.4256 22.1104 12.7352C22.2918 13.0448 22.3824 13.3805 22.3824 13.7423V16.1197C22.3824 16.4987 22.2918 16.8498 22.1104 17.173C21.9291 17.4962 21.6864 17.7408 21.3824 17.9067V19.0002C21.3824 19.6258 21.1597 20.1614 20.7141 20.6069C20.2686 21.0524 19.733 21.2752 19.1074 21.2752H10.8623ZM8.99981 14.048C8.70293 14.048 8.45407 13.9476 8.25324 13.7468C8.0524 13.5459 7.95199 13.2971 7.95199 13.0002C7.95199 12.7033 8.0524 12.4545 8.25324 12.2536C8.45407 12.0528 8.70293 11.9524 8.99981 11.9524C9.2967 11.9524 9.54555 12.0528 9.74639 12.2536C9.94722 12.4545 10.0476 12.7033 10.0476 13.0002C10.0476 13.2971 9.94722 13.5459 9.74639 13.7468C9.54555 13.9476 9.2967 14.048 8.99981 14.048ZM14.9998 14.048C14.7029 14.048 14.4541 13.9476 14.2532 13.7468C14.0524 13.5459 13.952 13.2971 13.952 13.0002C13.952 12.7033 14.0524 12.4545 14.2532 12.2536C14.4541 12.0528 14.7029 11.9524 14.9998 11.9524C15.2967 11.9524 15.5456 12.0528 15.7464 12.2536C15.9472 12.4545 16.0476 12.7033 16.0476 13.0002C16.0476 13.2971 15.9472 13.5459 15.7464 13.7468C15.5456 13.9476 15.2967 14.048 14.9998 14.048ZM5.89329 12.1931C5.8306 11.2457 5.97209 10.3739 6.31774 9.57792C6.66339 8.7819 7.1297 8.09875 7.71666 7.52845C8.30361 6.95816 8.97906 6.51505 9.74301 6.1991C10.507 5.88316 11.2759 5.7252 12.0498 5.7252C13.5784 5.7252 14.9188 6.21632 16.071 7.19857C17.2232 8.1808 17.902 9.39457 18.1074 10.8399C16.5328 10.8232 15.1022 10.4123 13.8156 9.60724C12.529 8.80218 11.5547 7.74929 10.8927 6.44857C10.6101 7.77465 10.0207 8.94856 9.12454 9.9703C8.22834 10.992 7.15125 11.733 5.89329 12.1931Z" fill="#000F25"/>
</svg>
