<svg width="24" height="24" viewBox="0 0 24 24" fill="none" xmlns="http://www.w3.org/2000/svg">
<path d="M9.00015 21.2031H5.0719C4.44218 21.2031 3.90558 20.9813 3.4621 20.5378C3.01862 20.0943 2.79688 19.5577 2.79688 18.928V5.07153C2.79688 4.44181 3.01862 3.90521 3.4621 3.46173C3.90558 3.01825 4.44218 2.7965 5.0719 2.7965H9.00015V5.07153H5.0719V18.928H9.00015V21.2031ZM10.8806 23.1851V0.814453H13.1556V23.1851H10.8806ZM15.0001 21.2031V18.9759H16.9762V21.2031H15.0001ZM15.0001 5.0237V2.7965H16.9762V5.0237H15.0001ZM18.9762 21.2031V18.9759H21.2034C21.2034 19.5896 20.9853 20.1143 20.5492 20.5498C20.113 20.9853 19.5887 21.2031 18.9762 21.2031ZM18.9762 16.9759V14.9998H21.2034V16.9759H18.9762ZM18.9762 12.9998V10.9998H21.2034V12.9998H18.9762ZM18.9762 8.99978V7.0237H21.2034V8.99978H18.9762ZM18.9762 5.0237V2.7965C19.5887 2.7965 20.113 3.01459 20.5492 3.45075C20.9853 3.8869 21.2034 4.41122 21.2034 5.0237H18.9762Z" fill="black"/>
</svg>
