<svg width="24" height="24" viewBox="0 0 24 24" fill="none" xmlns="http://www.w3.org/2000/svg">
<path d="M11.9322 18.0002C12.2982 18.0002 12.6089 17.8723 12.8645 17.6167C13.1202 17.3611 13.248 17.05 13.248 16.6835C13.248 16.317 13.1202 16.0073 12.8645 15.7542C12.6089 15.5011 12.2982 15.3746 11.9322 15.3746C11.5663 15.3746 11.2555 15.5011 10.9999 15.7542C10.7443 16.0073 10.6165 16.317 10.6165 16.6835C10.6165 17.05 10.7443 17.3611 10.9999 17.6167C11.2555 17.8723 11.5663 18.0002 11.9322 18.0002ZM10.9665 14.1501H12.936C12.936 13.6161 12.9995 13.1887 13.1265 12.8681C13.2535 12.5474 13.5987 12.1201 14.1621 11.586C14.5835 11.1686 14.9182 10.761 15.1662 10.3631C15.4142 9.96527 15.5382 9.48699 15.5382 8.92827C15.5382 7.98017 15.2005 7.25313 14.5251 6.74715C13.8498 6.24118 13.0454 5.9882 12.1121 5.9882C11.1462 5.9882 10.3574 6.24816 9.7458 6.76807C9.1342 7.28801 8.70775 7.90993 8.46645 8.63385L10.248 9.3257C10.3393 9.01773 10.5258 8.69074 10.8075 8.34473C11.0892 7.99871 11.5141 7.8257 12.0822 7.8257C12.5677 7.8257 12.9338 7.96157 13.1806 8.2333C13.4273 8.50503 13.5507 8.80395 13.5507 9.13005C13.5507 9.44345 13.4537 9.74299 13.2597 10.0287C13.0656 10.3144 12.8326 10.5703 12.5605 10.7964C11.8431 11.4384 11.3981 11.933 11.2254 12.2803C11.0528 12.6276 10.9665 13.2509 10.9665 14.1501ZM12.0001 22.2034C10.5849 22.2034 9.25706 21.9358 8.01652 21.4005C6.77599 20.8652 5.6969 20.1387 4.77925 19.2211C3.8616 18.3034 3.13512 17.2243 2.59982 15.9838C2.06452 14.7432 1.79688 13.4154 1.79688 12.0001C1.79688 10.5849 2.06452 9.25706 2.59982 8.01653C3.13512 6.77599 3.8616 5.6969 4.77925 4.77925C5.6969 3.8616 6.77599 3.13512 8.01652 2.59982C9.25706 2.06452 10.5849 1.79688 12.0001 1.79688C13.4154 1.79688 14.7432 2.06452 15.9838 2.59982C17.2243 3.13512 18.3034 3.8616 19.2211 4.77925C20.1387 5.6969 20.8652 6.77599 21.4005 8.01653C21.9358 9.25706 22.2034 10.5849 22.2034 12.0001C22.2034 13.4154 21.9358 14.7432 21.4005 15.9838C20.8652 17.2243 20.1387 18.3034 19.2211 19.2211C18.3034 20.1387 17.2243 20.8652 15.9838 21.4005C14.7432 21.9358 13.4154 22.2034 12.0001 22.2034ZM12.0001 19.9284C14.2175 19.9284 16.0933 19.1614 17.6273 17.6273C19.1614 16.0933 19.9284 14.2175 19.9284 12.0001C19.9284 9.78277 19.1614 7.90704 17.6273 6.37298C16.0933 4.83893 14.2175 4.0719 12.0001 4.0719C9.78277 4.0719 7.90704 4.83893 6.37297 6.37298C4.83892 7.90704 4.0719 9.78277 4.0719 12.0001C4.0719 14.2175 4.83892 16.0933 6.37297 17.6273C7.90704 19.1614 9.78277 19.9284 12.0001 19.9284Z" fill="black"/>
</svg>
