<svg width="24" height="24" viewBox="0 0 24 24" fill="none" xmlns="http://www.w3.org/2000/svg">
<path d="M10.9523 19.0121H13.048V18.0121H14.0001C14.297 18.0121 14.5459 17.9123 14.7467 17.7126C14.9476 17.5129 15.048 17.2654 15.048 16.9702V13.9224C15.048 13.6255 14.9476 13.3767 14.7467 13.1758C14.5459 12.975 14.297 12.8746 14.0001 12.8746H11.048V11.9224H15.048V9.83275H13.048V8.83275H10.9523V9.83275H10.0002C9.70327 9.83275 9.45441 9.93259 9.25357 10.1323C9.05274 10.332 8.95233 10.5794 8.95233 10.8746V13.9224C8.95233 14.2193 9.05274 14.4682 9.25357 14.669C9.45441 14.8698 9.70327 14.9702 10.0002 14.9702H12.9523V15.9224H8.95233V18.0121H10.9523V19.0121ZM6.0719 22.2034C5.44218 22.2034 4.90558 21.9817 4.4621 21.5382C4.01862 21.0947 3.79688 20.5581 3.79688 19.9284V4.0719C3.79688 3.44218 4.01862 2.90558 4.4621 2.4621C4.90558 2.01862 5.44218 1.79688 6.0719 1.79688H14.0838L20.2034 7.91645V19.9284C20.2034 20.5581 19.9817 21.0947 19.5382 21.5382C19.0947 21.9817 18.5581 22.2034 17.9284 22.2034L6.0719 22.2034ZM13.048 7.91645V4.0719H6.0719V19.9284H17.9284V7.91645H13.048Z" fill="#000F25"/>
</svg>
