<svg width="24" height="24" viewBox="0 0 24 24" fill="none" xmlns="http://www.w3.org/2000/svg">
<path d="M5.0719 21.2034C4.44627 21.2034 3.91069 20.9807 3.46517 20.5351C3.01964 20.0896 2.79688 19.554 2.79688 18.9284V5.0719C2.79688 4.44627 3.01964 3.91069 3.46517 3.46517C3.91069 3.01964 4.44627 2.79688 5.0719 2.79688H9.0746C9.31917 2.18891 9.70558 1.70358 10.2339 1.3409C10.7621 0.978216 11.3509 0.796875 12.0001 0.796875C12.6494 0.796875 13.2382 0.978216 13.7664 1.3409C14.2947 1.70358 14.6811 2.18891 14.9257 2.79688H18.9284C19.554 2.79688 20.0896 3.01964 20.5351 3.46517C20.9807 3.91069 21.2034 4.44627 21.2034 5.0719V18.9284C21.2034 19.554 20.9807 20.0896 20.5351 20.5351C20.0896 20.9807 19.554 21.2034 18.9284 21.2034H5.0719ZM5.0719 18.9284H18.9284V5.0719H5.0719V18.9284ZM7.0719 16.9284H13.9822V14.9284H7.0719V16.9284ZM7.0719 13.0001H16.9284V11.0001H7.0719V13.0001ZM7.0719 9.0719H16.9284V7.0719H7.0719V9.0719ZM12.0001 4.29798C12.2306 4.29798 12.4212 4.22262 12.5719 4.07192C12.7226 3.92122 12.798 3.73063 12.798 3.50015C12.798 3.26967 12.7226 3.07908 12.5719 2.92838C12.4212 2.77768 12.2306 2.70232 12.0001 2.70232C11.7697 2.70232 11.5791 2.77768 11.4284 2.92838C11.2777 3.07908 11.2023 3.26967 11.2023 3.50015C11.2023 3.73063 11.2777 3.92122 11.4284 4.07192C11.5791 4.22262 11.7697 4.29798 12.0001 4.29798Z" fill="black"/>
</svg>
