<svg width="24" height="24" viewBox="0 0 24 24" fill="none" xmlns="http://www.w3.org/2000/svg">
<path d="M7.0719 19.2034V16.9284H14.2257C15.2279 16.9284 16.0955 16.604 16.8287 15.9553C17.5618 15.3066 17.9284 14.5002 17.9284 13.536C17.9284 12.5719 17.5618 11.7645 16.8287 11.1137C16.0955 10.463 15.2279 10.1376 14.2257 10.1376H8.12297L10.5974 12.6121L9.00613 14.2034L3.79688 9.00015L9.00613 3.79688L10.5974 5.3882L8.12297 7.86265H14.2257C15.8663 7.86265 17.2727 8.40658 18.445 9.49445C19.6173 10.5823 20.2034 11.9275 20.2034 13.5301C20.2034 15.1326 19.6173 16.4788 18.445 17.5686C17.2727 18.6585 15.8663 19.2034 14.2257 19.2034H7.0719Z" fill="#000F25"/>
</svg>
