<svg width="24" height="24" viewBox="0 0 24 24" fill="none" xmlns="http://www.w3.org/2000/svg">
<path d="M4.89258 22.2034V1.79688H7.16758V3.74308H21.4127L19.2931 9.00013L21.4127 14.2572H7.16758V22.2034L4.89258 22.2034ZM12.5659 11.0001C13.1159 11.0001 13.5868 10.8043 13.9784 10.4126C14.3701 10.021 14.5659 9.55013 14.5659 9.00013C14.5659 8.45013 14.3701 7.97929 13.9784 7.58763C13.5868 7.19596 13.1159 7.00013 12.5659 7.00013C12.0159 7.00013 11.5451 7.19596 11.1534 7.58763C10.7618 7.97929 10.5659 8.45013 10.5659 9.00013C10.5659 9.55013 10.7618 10.021 11.1534 10.4126C11.5451 10.8043 12.0159 11.0001 12.5659 11.0001ZM7.16758 11.9822H18.0382L16.8382 9.00013L18.0382 6.01805H7.16758V11.9822Z" fill="#000F25"/>
</svg>
